SplineFontDB: 3.2
FontName: Charybdis
FullName: Charybdis
FamilyName: Charybdis
Weight: Book
Copyright: (C)2001 Tepid Monkey Fonts-www.fontframe.com/tepidmonkey
Version: 04 February 2001
ItalicAngle: 0
UnderlinePosition: -143
UnderlineWidth: 20
Ascent: 800
Descent: 200
InvalidEm: 0
sfntRevision: 0x00010000
LayerCount: 2
Layer: 0 1 "Back" 1
Layer: 1 1 "Fore" 0
XUID: [1021 363 1404126697 16498]
StyleMap: 0x0040
FSType: 4
OS2Version: 1
OS2_WeightWidthSlopeOnly: 0
OS2_UseTypoMetrics: 0
CreationTime: 981227718
ModificationTime: 1735509293
PfmFamily: 81
TTFWeight: 400
TTFWidth: 5
LineGap: 0
VLineGap: 0
Panose: 0 0 4 0 0 0 0 0 0 0
OS2TypoAscent: 565
OS2TypoAOffset: 0
OS2TypoDescent: -125
OS2TypoDOffset: 0
OS2TypoLinegap: 0
OS2WinAscent: 565
OS2WinAOffset: 0
OS2WinDescent: 125
OS2WinDOffset: 0
HheadAscent: 800
HheadAOffset: 0
HheadDescent: -200
HheadDOffset: 0
OS2SubXSize: 700
OS2SubYSize: 650
OS2SubXOff: 0
OS2SubYOff: 143
OS2SupXSize: 700
OS2SupYSize: 650
OS2SupXOff: 0
OS2SupYOff: 453
OS2StrikeYSize: 50
OS2StrikeYPos: 259
OS2Vendor: 'MACR'
OS2CodePages: 00000001.00000000
OS2UnicodeRanges: 00000003.00000000.00000000.00000000
DEI: 91125
TtTable: prep
NPUSHB
 27
 16
 16
 15
 15
 14
 14
 13
 13
 12
 12
 11
 11
 10
 10
 9
 9
 8
 8
 3
 3
 2
 2
 1
 1
 0
 0
 1
SCANTYPE
PUSHW_1
 511
SCANCTRL
RCVT
ROUND[Grey]
WCVTP
RCVT
ROUND[Grey]
WCVTP
RCVT
ROUND[Grey]
WCVTP
RCVT
ROUND[Grey]
WCVTP
RCVT
ROUND[Grey]
WCVTP
RCVT
ROUND[Grey]
WCVTP
RCVT
ROUND[Grey]
WCVTP
RCVT
ROUND[Grey]
WCVTP
RCVT
ROUND[Grey]
WCVTP
RCVT
ROUND[Grey]
WCVTP
RCVT
ROUND[Grey]
WCVTP
RCVT
ROUND[Grey]
WCVTP
RCVT
ROUND[Grey]
WCVTP
PUSHB_4
 5
 4
 70
 0
CALL
PUSHB_4
 7
 6
 70
 0
CALL
PUSHB_2
 4
 4
RCVT
ROUND[Grey]
WCVTP
PUSHB_2
 6
 6
RCVT
ROUND[Grey]
WCVTP
EndTTInstrs
TtTable: fpgm
NPUSHB
 1
 0
FDEF
SROUND
RCVT
DUP
PUSHB_1
 3
CINDEX
RCVT
SWAP
SUB
ROUND[Grey]
RTG
SWAP
ROUND[Grey]
ADD
WCVTP
ENDF
EndTTInstrs
ShortTable: cvt  20
  -125
  0
  377
  565
  127
  190
  65
  127
  315
  190
  440
  378
  250
  441
  315
  190
  377

StartChar: .notdef
Encoding: 65536 -1 0
Width: 500
GlyphClass: 1
Flags: W
LayerCount: 2
Fore
SplineSet
63 0 m 1,0,-1
 63 800 l 1,1,-1
 438 800 l 1,2,-1
 438 0 l 1,3,-1
 63 0 l 1,0,-1
125 63 m 1,4,-1
 375 63 l 1,5,-1
 375 738 l 1,6,-1
 125 738 l 1,7,-1
 125 63 l 1,4,-1
EndSplineSet
EndChar

StartChar: exclam
Encoding: 33 33 4
Width: 439
GlyphClass: 2
Flags: W
LayerCount: 2
Fore
SplineSet
251 188 m 1,0,-1
 125 188 l 1,1,-1
 125 565 l 1,2,-1
 251 565 l 1,3,-1
 251 188 l 1,0,-1
251 0 m 1,4,-1
 125 0 l 1,5,-1
 125 127 l 1,6,-1
 251 127 l 1,7,-1
 251 0 l 1,4,-1
EndSplineSet
EndChar

StartChar: quotedbl
Encoding: 34 34 5
Width: 439
GlyphClass: 2
Flags: W
LayerCount: 2
Fore
SplineSet
377 376 m 1,0,-1
 250 376 l 1,1,-1
 250 565 l 1,2,-1
 377 565 l 1,3,-1
 377 376 l 1,0,-1
189 376 m 1,4,-1
 62 376 l 1,5,-1
 62 565 l 1,6,-1
 189 565 l 1,7,-1
 189 376 l 1,4,-1
EndSplineSet
EndChar

StartChar: numbersign
Encoding: 35 35 6
Width: 439
GlyphClass: 2
Flags: W
LayerCount: 2
Fore
SplineSet
377 125 m 1,0,-1
 315 125 l 1,1,-1
 315 0 l 1,2,-1
 249 0 l 1,3,-1
 249 125 l 1,4,-1
 189 125 l 1,5,-1
 189 0 l 1,6,-1
 124 0 l 1,7,-1
 124 125 l 1,8,-1
 62 125 l 1,9,-1
 62 190 l 1,10,-1
 124 190 l 1,11,-1
 124 313 l 1,12,-1
 62 313 l 1,13,-1
 62 378 l 1,14,-1
 124 378 l 1,15,-1
 124 502 l 1,16,-1
 189 502 l 1,17,-1
 189 378 l 1,18,-1
 249 378 l 1,19,-1
 249 502 l 1,20,-1
 315 502 l 1,21,-1
 315 378 l 1,22,-1
 377 378 l 1,23,-1
 377 313 l 1,24,-1
 315 313 l 1,25,-1
 315 190 l 1,26,-1
 377 190 l 1,27,-1
 377 125 l 1,0,-1
249 190 m 1,28,-1
 249 312 l 1,29,-1
 189 312 l 1,30,-1
 189 190 l 1,31,-1
 249 190 l 1,28,-1
EndSplineSet
EndChar

StartChar: dollar
Encoding: 36 36 7
Width: 439
GlyphClass: 2
Flags: W
LayerCount: 2
Fore
SplineSet
377 125 m 1,0,-1
 314 125 l 1,1,-1
 314 62 l 1,2,-1
 251 62 l 1,3,-1
 251 -63 l 1,4,-1
 187 -63 l 1,5,-1
 187 62 l 1,6,-1
 124 62 l 1,7,-1
 124 125 l 1,8,-1
 62 125 l 1,9,-1
 62 189 l 1,10,-1
 126 189 l 1,11,-1
 126 127 l 1,12,-1
 250 127 l 1,13,-1
 250 250 l 1,14,-1
 124 249 l 1,15,-1
 124 313 l 1,16,-1
 62 313 l 1,17,-1
 62 440 l 1,18,-1
 124 440 l 1,19,-1
 124 503 l 1,20,-1
 187 503 l 1,21,-1
 187 565 l 1,22,-1
 251 565 l 1,23,-1
 251 503 l 1,24,-1
 314 503 l 1,25,-1
 314 440 l 1,26,-1
 377 440 l 1,27,-1
 377 376 l 1,28,-1
 313 376 l 1,29,-1
 313 438 l 1,30,-1
 189 438 l 1,31,-1
 189 315 l 1,32,-1
 314 316 l 1,33,-1
 314 253 l 1,34,-1
 377 253 l 1,35,-1
 377 125 l 1,0,-1
EndSplineSet
EndChar

StartChar: percent
Encoding: 37 37 8
Width: 439
GlyphClass: 2
Flags: W
LayerCount: 2
Fore
SplineSet
439 376 m 1,0,-1
 377 376 l 1,1,-1
 377 313 l 1,2,-1
 314 313 l 1,3,-1
 314 253 l 1,4,-1
 377 253 l 1,5,-1
 377 190 l 1,6,-1
 439 190 l 1,7,-1
 439 62 l 1,8,-1
 377 62 l 1,9,-1
 377 0 l 1,10,-1
 312 0 l 1,11,-1
 312 62 l 1,12,-1
 250 62 l 1,13,-1
 250 188 l 1,14,-1
 189 188 l 1,15,-1
 189 0 l 1,16,-1
 62 0 l 1,17,-1
 62 189 l 1,18,-1
 124 189 l 1,19,-1
 124 253 l 1,20,-1
 187 253 l 1,21,-1
 187 313 l 1,22,-1
 124 313 l 1,23,-1
 124 375 l 1,24,-1
 62 375 l 1,25,-1
 62 503 l 1,26,-1
 124 503 l 1,27,-1
 124 565 l 1,28,-1
 189 565 l 1,29,-1
 189 503 l 1,30,-1
 251 503 l 1,31,-1
 251 377 l 1,32,-1
 312 377 l 1,33,-1
 312 565 l 1,34,-1
 439 565 l 1,35,-1
 439 376 l 1,0,-1
187 378 m 1,36,-1
 187 500 l 1,37,-1
 127 500 l 1,38,-1
 127 378 l 1,39,-1
 187 378 l 1,36,-1
249 315 m 1,40,-1
 249 375 l 1,41,-1
 189 375 l 1,42,-1
 189 315 l 1,43,-1
 249 315 l 1,40,-1
312 190 m 1,44,-1
 312 250 l 1,45,-1
 252 250 l 1,46,-1
 252 190 l 1,47,-1
 312 190 l 1,44,-1
374 65 m 1,48,-1
 374 187 l 1,49,-1
 315 187 l 1,50,-1
 315 65 l 1,51,-1
 374 65 l 1,48,-1
EndSplineSet
EndChar

StartChar: ampersand
Encoding: 38 38 9
Width: 439
GlyphClass: 2
Flags: W
LayerCount: 2
Fore
SplineSet
377 188 m 1,0,-1
 314 188 l 1,1,-1
 314 64 l 1,2,-1
 377 65 l 1,3,-1
 377 0 l 1,4,-1
 250 0 l 1,5,-1
 250 62 l 1,6,-1
 190 62 l 1,7,-1
 190 0 l 1,8,-1
 62 0 l 1,9,-1
 62 62 l 1,10,-1
 -1 62 l 1,11,-1
 -1 252 l 1,12,-1
 62 252 l 1,13,-1
 62 375 l 1,14,-1
 -1 375 l 1,15,-1
 -1 503 l 1,16,-1
 62 503 l 1,17,-1
 62 565 l 1,18,-1
 251 565 l 1,19,-1
 251 503 l 1,20,-1
 314 503 l 1,21,-1
 314 375 l 1,22,-1
 251 375 l 1,23,-1
 251 252 l 1,24,-1
 312 252 l 1,25,-1
 312 315 l 1,26,-1
 377 315 l 1,27,-1
 377 188 l 1,0,-1
187 378 m 1,28,-1
 187 500 l 1,29,-1
 127 500 l 1,30,-1
 127 378 l 1,31,-1
 187 378 l 1,28,-1
187 65 m 1,32,-1
 187 250 l 1,33,-1
 127 250 l 1,34,-1
 127 65 l 1,35,-1
 187 65 l 1,32,-1
EndSplineSet
EndChar

StartChar: quotesingle
Encoding: 39 39 10
Width: 439
GlyphClass: 2
Flags: W
LayerCount: 2
Fore
SplineSet
314 438 m 1,0,-1
 252 438 l 1,1,-1
 252 376 l 1,2,-1
 125 376 l 1,3,-1
 125 440 l 1,4,-1
 187 440 l 1,5,-1
 187 565 l 1,6,-1
 314 565 l 1,7,-1
 314 438 l 1,0,-1
EndSplineSet
EndChar

StartChar: parenleft
Encoding: 40 40 11
Width: 439
GlyphClass: 2
Flags: W
LayerCount: 2
Fore
SplineSet
314 501 m 1,0,-1
 252 501 l 1,1,-1
 252 438 l 1,2,-1
 189 438 l 1,3,-1
 189 127 l 1,4,-1
 252 127 l 1,5,-1
 252 65 l 1,6,-1
 314 65 l 1,7,-1
 314 0 l 1,8,-1
 187 0 l 1,9,-1
 187 63 l 1,10,-1
 124 62 l 1,11,-1
 124 125 l 1,12,-1
 62 125 l 1,13,-1
 62 440 l 1,14,-1
 124 440 l 1,15,-1
 124 502 l 1,16,-1
 187 502 l 1,17,-1
 187 565 l 1,18,-1
 314 565 l 1,19,-1
 314 501 l 1,0,-1
EndSplineSet
EndChar

StartChar: parenright
Encoding: 41 41 12
Width: 439
GlyphClass: 2
Flags: W
LayerCount: 2
Fore
SplineSet
377 125 m 1,0,-1
 315 125 l 1,1,-1
 315 63 l 1,2,-1
 251 63 l 1,3,-1
 251 0 l 1,4,-1
 125 0 l 1,5,-1
 125 64 l 1,6,-1
 187 64 l 1,7,-1
 187 127 l 1,8,-1
 250 127 l 1,9,-1
 250 438 l 1,10,-1
 187 438 l 1,11,-1
 187 501 l 1,12,-1
 125 500 l 1,13,-1
 125 565 l 1,14,-1
 251 565 l 1,15,-1
 251 502 l 1,16,-1
 315 504 l 1,17,-1
 315 440 l 1,18,-1
 377 440 l 1,19,-1
 377 125 l 1,0,-1
EndSplineSet
EndChar

StartChar: asterisk
Encoding: 42 42 13
Width: 439
GlyphClass: 2
Flags: W
LayerCount: 2
Fore
SplineSet
439 250 m 1,0,-1
 315 250 l 1,1,-1
 315 189 l 1,2,-1
 377 190 l 1,3,-1
 377 125 l 1,4,-1
 249 125 l 1,5,-1
 249 188 l 1,6,-1
 189 188 l 1,7,-1
 189 125 l 1,8,-1
 62 125 l 1,9,-1
 62 189 l 1,10,-1
 124 189 l 1,11,-1
 124 250 l 1,12,-1
 -1 250 l 1,13,-1
 -1 315 l 1,14,-1
 124 315 l 1,15,-1
 124 376 l 1,16,-1
 62 375 l 1,17,-1
 62 440 l 1,18,-1
 189 440 l 1,19,-1
 189 377 l 1,20,-1
 249 377 l 1,21,-1
 249 440 l 1,22,-1
 377 440 l 1,23,-1
 377 376 l 1,24,-1
 315 376 l 1,25,-1
 315 315 l 1,26,-1
 439 315 l 1,27,-1
 439 250 l 1,0,-1
EndSplineSet
EndChar

StartChar: plus
Encoding: 43 43 14
Width: 439
GlyphClass: 2
Flags: W
LayerCount: 2
Fore
SplineSet
379 125 m 1,0,-1
 252 125 l 1,1,-1
 252 0 l 1,2,-1
 124 0 l 1,3,-1
 124 125 l 1,4,-1
 -1 125 l 1,5,-1
 -1 190 l 1,6,-1
 124 190 l 1,7,-1
 124 315 l 1,8,-1
 252 315 l 1,9,-1
 252 190 l 1,10,-1
 379 190 l 1,11,-1
 379 125 l 1,0,-1
EndSplineSet
EndChar

StartChar: comma
Encoding: 44 44 15
Width: 439
GlyphClass: 2
Flags: W
LayerCount: 2
Fore
SplineSet
314 -63 m 1,0,-1
 252 -63 l 1,1,-1
 252 -125 l 1,2,-1
 125 -125 l 1,3,-1
 125 -61 l 1,4,-1
 187 -61 l 1,5,-1
 187 -1 l 1,6,-1
 125 -1 l 1,7,-1
 125 127 l 1,8,-1
 314 127 l 1,9,-1
 314 -63 l 1,0,-1
EndSplineSet
EndChar

StartChar: hyphen
Encoding: 45 45 16
AltUni2: 002010.ffffffff.0 002010.ffffffff.0
Width: 439
GlyphClass: 2
Flags: W
LayerCount: 2
Fore
SplineSet
377 188 m 1,0,-1
 62 188 l 1,1,-1
 62 252 l 1,2,-1
 377 252 l 1,3,-1
 377 188 l 1,0,-1
EndSplineSet
EndChar

StartChar: period
Encoding: 46 46 17
Width: 439
GlyphClass: 2
Flags: W
LayerCount: 2
Fore
SplineSet
314 0 m 1,0,-1
 125 0 l 1,1,-1
 125 127 l 1,2,-1
 314 127 l 1,3,-1
 314 0 l 1,0,-1
EndSplineSet
EndChar

StartChar: slash
Encoding: 47 47 18
Width: 439
GlyphClass: 2
Flags: W
LayerCount: 2
Fore
SplineSet
377 438 m 1,0,-1
 315 438 l 1,1,-1
 315 313 l 1,2,-1
 252 313 l 1,3,-1
 252 188 l 1,4,-1
 189 188 l 1,5,-1
 189 63 l 1,6,-1
 126 63 l 1,7,-1
 126 0 l 1,8,-1
 -1 0 l 1,9,-1
 -1 64 l 1,10,-1
 61 64 l 1,11,-1
 61 189 l 1,12,-1
 125 189 l 1,13,-1
 125 315 l 1,14,-1
 187 315 l 1,15,-1
 187 440 l 1,16,-1
 250 440 l 1,17,-1
 250 565 l 1,18,-1
 377 565 l 1,19,-1
 377 438 l 1,0,-1
EndSplineSet
EndChar

StartChar: zero
Encoding: 48 48 19
Width: 439
GlyphClass: 2
Flags: W
LayerCount: 2
Fore
SplineSet
377 63 m 1,0,-1
 315 63 l 1,1,-1
 315 0 l 1,2,-1
 62 0 l 1,3,-1
 62 502 l 1,4,-1
 124 502 l 1,5,-1
 124 565 l 1,6,-1
 377 565 l 1,7,-1
 377 63 l 1,0,-1
249 65 m 1,8,-1
 249 500 l 1,9,-1
 189 500 l 1,10,-1
 189 65 l 1,11,-1
 249 65 l 1,8,-1
EndSplineSet
EndChar

StartChar: one
Encoding: 49 49 20
Width: 439
GlyphClass: 2
Flags: W
LayerCount: 2
Fore
SplineSet
314 0 m 1,0,-1
 187 0 l 1,1,-1
 187 375 l 1,2,-1
 62 375 l 1,3,-1
 62 440 l 1,4,-1
 124 440 l 1,5,-1
 124 502 l 1,6,-1
 187 502 l 1,7,-1
 187 565 l 1,8,-1
 314 565 l 1,9,-1
 314 0 l 1,0,-1
EndSplineSet
EndChar

StartChar: two
Encoding: 50 50 21
Width: 439
GlyphClass: 2
Flags: W
LayerCount: 2
Fore
SplineSet
377 0 m 1,0,-1
 62 0 l 1,1,-1
 62 127 l 1,2,-1
 124 127 l 1,3,-1
 124 189 l 1,4,-1
 187 189 l 1,5,-1
 187 315 l 1,6,-1
 250 315 l 1,7,-1
 250 501 l 1,8,-1
 189 501 l 1,9,-1
 189 376 l 1,10,-1
 62 376 l 1,11,-1
 62 502 l 1,12,-1
 124 502 l 1,13,-1
 124 565 l 1,14,-1
 315 565 l 1,15,-1
 315 503 l 1,16,-1
 377 503 l 1,17,-1
 377 313 l 1,18,-1
 315 313 l 1,19,-1
 315 188 l 1,20,-1
 252 188 l 1,21,-1
 252 125 l 1,22,-1
 189 125 l 1,23,-1
 189 65 l 1,24,-1
 377 65 l 1,25,-1
 377 0 l 1,0,-1
EndSplineSet
EndChar

StartChar: three
Encoding: 51 51 22
Width: 439
GlyphClass: 2
Flags: W
LayerCount: 2
Fore
SplineSet
377 62 m 1,0,-1
 315 62 l 1,1,-1
 315 0 l 1,2,-1
 124 0 l 1,3,-1
 124 62 l 1,4,-1
 62 62 l 1,5,-1
 62 127 l 1,6,-1
 189 127 l 1,7,-1
 189 64 l 1,8,-1
 249 64 l 1,9,-1
 249 250 l 1,10,-1
 124 250 l 1,11,-1
 124 315 l 1,12,-1
 249 315 l 1,13,-1
 249 501 l 1,14,-1
 189 501 l 1,15,-1
 189 438 l 1,16,-1
 62 438 l 1,17,-1
 62 502 l 1,18,-1
 124 502 l 1,19,-1
 124 565 l 1,20,-1
 315 565 l 1,21,-1
 315 503 l 1,22,-1
 377 503 l 1,23,-1
 377 313 l 1,24,-1
 315 313 l 1,25,-1
 315 253 l 1,26,-1
 377 253 l 1,27,-1
 377 62 l 1,0,-1
EndSplineSet
EndChar

StartChar: four
Encoding: 52 52 23
Width: 439
GlyphClass: 2
Flags: W
LayerCount: 2
Fore
SplineSet
439 125 m 1,0,-1
 377 125 l 1,1,-1
 377 0 l 1,2,-1
 250 0 l 1,3,-1
 250 125 l 1,4,-1
 62 125 l 1,5,-1
 62 378 l 1,6,-1
 124 378 l 1,7,-1
 124 565 l 1,8,-1
 251 565 l 1,9,-1
 251 378 l 1,10,-1
 377 378 l 1,11,-1
 377 190 l 1,12,-1
 439 190 l 1,13,-1
 439 125 l 1,0,-1
249 190 m 1,14,-1
 249 375 l 1,15,-1
 189 375 l 1,16,-1
 189 190 l 1,17,-1
 249 190 l 1,14,-1
EndSplineSet
EndChar

StartChar: five
Encoding: 53 53 24
Width: 439
GlyphClass: 2
Flags: W
LayerCount: 2
Fore
SplineSet
377 62 m 1,0,-1
 315 62 l 1,1,-1
 315 0 l 1,2,-1
 125 0 l 1,3,-1
 125 62 l 1,4,-1
 62 62 l 1,5,-1
 62 127 l 1,6,-1
 189 127 l 1,7,-1
 189 64 l 1,8,-1
 249 64 l 1,9,-1
 249 250 l 1,10,-1
 62 249 l 1,11,-1
 62 565 l 1,12,-1
 377 565 l 1,13,-1
 377 501 l 1,14,-1
 189 501 l 1,15,-1
 189 316 l 1,16,-1
 315 316 l 1,17,-1
 315 253 l 1,18,-1
 377 253 l 1,19,-1
 377 62 l 1,0,-1
EndSplineSet
EndChar

StartChar: six
Encoding: 54 54 25
Width: 439
GlyphClass: 2
Flags: W
LayerCount: 2
Fore
SplineSet
377 62 m 1,0,-1
 314 62 l 1,1,-1
 314 0 l 1,2,-1
 124 0 l 1,3,-1
 124 62 l 1,4,-1
 62 62 l 1,5,-1
 62 377 l 1,6,-1
 124 377 l 1,7,-1
 124 502 l 1,8,-1
 187 502 l 1,9,-1
 187 565 l 1,10,-1
 314 565 l 1,11,-1
 314 501 l 1,12,-1
 252 501 l 1,13,-1
 252 376 l 1,14,-1
 189 376 l 1,15,-1
 189 316 l 1,16,-1
 314 316 l 1,17,-1
 314 253 l 1,18,-1
 377 253 l 1,19,-1
 377 62 l 1,0,-1
249 65 m 1,20,-1
 249 250 l 1,21,-1
 189 250 l 1,22,-1
 189 65 l 1,23,-1
 249 65 l 1,20,-1
EndSplineSet
EndChar

StartChar: seven
Encoding: 55 55 26
Width: 439
GlyphClass: 2
Flags: W
LayerCount: 2
Fore
SplineSet
377 376 m 1,0,-1
 315 376 l 1,1,-1
 315 188 l 1,2,-1
 252 188 l 1,3,-1
 252 0 l 1,4,-1
 125 0 l 1,5,-1
 125 189 l 1,6,-1
 186 189 l 1,7,-1
 186 377 l 1,8,-1
 250 377 l 1,9,-1
 250 500 l 1,10,-1
 62 500 l 1,11,-1
 62 565 l 1,12,-1
 377 565 l 1,13,-1
 377 376 l 1,0,-1
EndSplineSet
EndChar

StartChar: eight
Encoding: 56 56 27
Width: 439
GlyphClass: 2
Flags: W
LayerCount: 2
Fore
SplineSet
377 62 m 1,0,-1
 315 62 l 1,1,-1
 315 0 l 1,2,-1
 124 0 l 1,3,-1
 124 62 l 1,4,-1
 62 62 l 1,5,-1
 62 253 l 1,6,-1
 124 253 l 1,7,-1
 124 313 l 1,8,-1
 62 313 l 1,9,-1
 62 503 l 1,10,-1
 124 503 l 1,11,-1
 124 565 l 1,12,-1
 315 565 l 1,13,-1
 315 503 l 1,14,-1
 377 503 l 1,15,-1
 377 313 l 1,16,-1
 315 313 l 1,17,-1
 315 253 l 1,18,-1
 377 253 l 1,19,-1
 377 62 l 1,0,-1
249 315 m 1,20,-1
 249 500 l 1,21,-1
 189 500 l 1,22,-1
 189 315 l 1,23,-1
 249 315 l 1,20,-1
249 65 m 1,24,-1
 249 250 l 1,25,-1
 189 250 l 1,26,-1
 189 65 l 1,27,-1
 249 65 l 1,24,-1
EndSplineSet
EndChar

StartChar: nine
Encoding: 57 57 28
Width: 439
GlyphClass: 2
Flags: W
LayerCount: 2
Fore
SplineSet
377 250 m 1,0,-1
 315 250 l 1,1,-1
 315 125 l 1,2,-1
 252 125 l 1,3,-1
 252 63 l 1,4,-1
 189 63 l 1,5,-1
 189 0 l 1,6,-1
 62 0 l 1,7,-1
 62 64 l 1,8,-1
 124 64 l 1,9,-1
 124 127 l 1,10,-1
 188 127 l 1,11,-1
 188 250 l 1,12,-1
 124 250 l 1,13,-1
 124 312 l 1,14,-1
 62 312 l 1,15,-1
 62 503 l 1,16,-1
 124 503 l 1,17,-1
 124 565 l 1,18,-1
 315 565 l 1,19,-1
 315 503 l 1,20,-1
 377 503 l 1,21,-1
 377 250 l 1,0,-1
249 315 m 1,22,-1
 249 500 l 1,23,-1
 189 500 l 1,24,-1
 189 315 l 1,25,-1
 249 315 l 1,22,-1
EndSplineSet
EndChar

StartChar: colon
Encoding: 58 58 29
Width: 439
GlyphClass: 2
Flags: W
LayerCount: 2
Fore
SplineSet
314 313 m 1,0,-1
 125 313 l 1,1,-1
 125 440 l 1,2,-1
 314 440 l 1,3,-1
 314 313 l 1,0,-1
314 0 m 1,4,-1
 125 0 l 1,5,-1
 125 127 l 1,6,-1
 314 127 l 1,7,-1
 314 0 l 1,4,-1
EndSplineSet
EndChar

StartChar: semicolon
Encoding: 59 59 30
Width: 439
GlyphClass: 2
Flags: W
LayerCount: 2
Fore
SplineSet
314 313 m 1,0,-1
 125 313 l 1,1,-1
 125 440 l 1,2,-1
 314 440 l 1,3,-1
 314 313 l 1,0,-1
314 -63 m 1,4,-1
 252 -63 l 1,5,-1
 252 -125 l 1,6,-1
 125 -125 l 1,7,-1
 125 -61 l 1,8,-1
 187 -61 l 1,9,-1
 187 -1 l 1,10,-1
 125 -1 l 1,11,-1
 125 127 l 1,12,-1
 314 127 l 1,13,-1
 314 -63 l 1,4,-1
EndSplineSet
EndChar

StartChar: less
Encoding: 60 60 31
Width: 439
GlyphClass: 2
Flags: W
LayerCount: 2
Fore
SplineSet
377 438 m 1,0,-1
 314 438 l 1,1,-1
 314 376 l 1,2,-1
 251 376 l 1,3,-1
 251 313 l 1,4,-1
 189 313 l 1,5,-1
 189 252 l 1,6,-1
 251 253 l 1,7,-1
 251 190 l 1,8,-1
 314 190 l 1,9,-1
 314 127 l 1,10,-1
 377 127 l 1,11,-1
 377 0 l 1,12,-1
 313 0 l 1,13,-1
 313 62 l 1,14,-1
 250 62 l 1,15,-1
 250 125 l 1,16,-1
 187 125 l 1,17,-1
 187 187 l 1,18,-1
 124 187 l 1,19,-1
 124 250 l 1,20,-1
 62 250 l 1,21,-1
 62 315 l 1,22,-1
 124 315 l 1,23,-1
 124 377 l 1,24,-1
 187 377 l 1,25,-1
 187 440 l 1,26,-1
 250 440 l 1,27,-1
 250 502 l 1,28,-1
 313 502 l 1,29,-1
 313 565 l 1,30,-1
 377 565 l 1,31,-1
 377 438 l 1,0,-1
EndSplineSet
EndChar

StartChar: equal
Encoding: 61 61 32
Width: 439
GlyphClass: 2
Flags: W
LayerCount: 2
Fore
SplineSet
377 313 m 1,0,-1
 62 313 l 1,1,-1
 62 377 l 1,2,-1
 377 377 l 1,3,-1
 377 313 l 1,0,-1
377 127 m 1,4,-1
 62 127 l 1,5,-1
 62 189 l 1,6,-1
 377 189 l 1,7,-1
 377 127 l 1,4,-1
EndSplineSet
EndChar

StartChar: greater
Encoding: 62 62 33
Width: 439
GlyphClass: 2
Flags: W
LayerCount: 2
Fore
SplineSet
377 250 m 1,0,-1
 315 250 l 1,1,-1
 315 188 l 1,2,-1
 251 188 l 1,3,-1
 251 125 l 1,4,-1
 189 125 l 1,5,-1
 189 63 l 1,6,-1
 126 63 l 1,7,-1
 126 0 l 1,8,-1
 62 0 l 1,9,-1
 62 127 l 1,10,-1
 125 127 l 1,11,-1
 125 189 l 1,12,-1
 187 189 l 1,13,-1
 187 252 l 1,14,-1
 250 252 l 1,15,-1
 250 313 l 1,16,-1
 187 312 l 1,17,-1
 187 375 l 1,18,-1
 125 375 l 1,19,-1
 125 438 l 1,20,-1
 62 437 l 1,21,-1
 62 565 l 1,22,-1
 126 565 l 1,23,-1
 126 504 l 1,24,-1
 189 504 l 1,25,-1
 189 440 l 1,26,-1
 251 440 l 1,27,-1
 251 378 l 1,28,-1
 315 378 l 1,29,-1
 315 315 l 1,30,-1
 377 315 l 1,31,-1
 377 250 l 1,0,-1
EndSplineSet
EndChar

StartChar: question
Encoding: 63 63 34
Width: 439
GlyphClass: 2
Flags: W
LayerCount: 2
Fore
SplineSet
377 313 m 1,0,-1
 315 313 l 1,1,-1
 315 250 l 1,2,-1
 252 250 l 1,3,-1
 252 188 l 1,4,-1
 124 188 l 1,5,-1
 124 252 l 1,6,-1
 187 252 l 1,7,-1
 187 315 l 1,8,-1
 250 315 l 1,9,-1
 250 501 l 1,10,-1
 189 501 l 1,11,-1
 189 376 l 1,12,-1
 62 376 l 1,13,-1
 62 502 l 1,14,-1
 124 502 l 1,15,-1
 124 565 l 1,16,-1
 315 565 l 1,17,-1
 315 503 l 1,18,-1
 377 503 l 1,19,-1
 377 313 l 1,0,-1
251 0 m 1,20,-1
 125 0 l 1,21,-1
 125 127 l 1,22,-1
 251 127 l 1,23,-1
 251 0 l 1,20,-1
EndSplineSet
EndChar

StartChar: at
Encoding: 64 64 35
Width: 439
GlyphClass: 2
Flags: W
LayerCount: 2
Fore
SplineSet
439 187 m 1,0,-1
 377 187 l 1,1,-1
 377 126 l 1,2,-1
 312 126 l 1,3,-1
 312 187 l 1,4,-1
 250 187 l 1,5,-1
 250 377 l 1,6,-1
 312 377 l 1,7,-1
 312 440 l 1,8,-1
 375 440 l 1,9,-1
 375 501 l 1,10,-1
 252 501 l 1,11,-1
 252 438 l 1,12,-1
 189 438 l 1,13,-1
 189 127 l 1,14,-1
 252 127 l 1,15,-1
 252 64 l 1,16,-1
 439 65 l 1,17,-1
 439 0 l 1,18,-1
 187 0 l 1,19,-1
 187 63 l 1,20,-1
 124 62 l 1,21,-1
 124 126 l 1,22,-1
 62 124 l 1,23,-1
 62 440 l 1,24,-1
 124 440 l 1,25,-1
 124 502 l 1,26,-1
 187 502 l 1,27,-1
 187 565 l 1,28,-1
 377 565 l 1,29,-1
 377 503 l 1,30,-1
 439 503 l 1,31,-1
 439 187 l 1,0,-1
374 190 m 1,32,-1
 374 375 l 1,33,-1
 315 375 l 1,34,-1
 315 190 l 1,35,-1
 374 190 l 1,32,-1
EndSplineSet
EndChar

StartChar: A
Encoding: 65 65 36
Width: 439
GlyphClass: 2
Flags: W
LayerCount: 2
Fore
SplineSet
439 0 m 1,0,-1
 375 0 l 1,1,-1
 375 62 l 1,2,-1
 313 62 l 1,3,-1
 313 125 l 1,4,-1
 250 125 l 1,5,-1
 250 187 l 1,6,-1
 125 187 l 1,7,-1
 124 503 l 1,8,-1
 188 503 l 1,9,-1
 188 565 l 1,10,-1
 250 565 l 1,11,-1
 312 565 l 1,12,-1
 374 565 l 1,13,-1
 374 500 l 1,14,-1
 439 500 l 1,15,-1
 439 0 l 1,0,-1
EndSplineSet
EndChar

StartChar: B
Encoding: 66 66 37
Width: 439
GlyphClass: 2
Flags: WO
LayerCount: 2
Fore
SplineSet
0 1 m 1,0,-1
 64 1 l 1,1,-1
 64 63 l 1,2,-1
 126 63 l 1,3,-1
 126 126 l 1,4,-1
 189 126 l 1,5,-1
 189 188 l 1,6,-1
 314 188 l 1,7,-1
 315 504 l 1,8,-1
 251 504 l 1,9,-1
 251 566 l 1,10,-1
 189 566 l 1,11,-1
 127 566 l 1,12,-1
 65 566 l 1,13,-1
 65 501 l 1,14,-1
 0 501 l 1,15,-1
 0 1 l 1,0,-1
EndSplineSet
EndChar

StartChar: C
Encoding: 67 67 38
Width: 439
GlyphClass: 2
Flags: W
LayerCount: 2
Fore
SplineSet
377 63 m 1,0,-1
 315 63 l 1,1,-1
 315 0 l 1,2,-1
 124 0 l 1,3,-1
 124 62 l 1,4,-1
 62 62 l 1,5,-1
 62 502 l 1,6,-1
 124 502 l 1,7,-1
 124 565 l 1,8,-1
 315 565 l 1,9,-1
 315 503 l 1,10,-1
 377 503 l 1,11,-1
 377 376 l 1,12,-1
 249 376 l 1,13,-1
 249 501 l 1,14,-1
 189 501 l 1,15,-1
 189 64 l 1,16,-1
 249 64 l 1,17,-1
 249 189 l 1,18,-1
 377 189 l 1,19,-1
 377 63 l 1,0,-1
EndSplineSet
EndChar

StartChar: D
Encoding: 68 68 39
Width: 439
GlyphClass: 2
Flags: W
LayerCount: 2
Fore
SplineSet
377 63 m 1,0,-1
 315 63 l 1,1,-1
 315 0 l 1,2,-1
 62 0 l 1,3,-1
 62 565 l 1,4,-1
 315 565 l 1,5,-1
 315 504 l 1,6,-1
 377 504 l 1,7,-1
 377 63 l 1,0,-1
249 65 m 1,8,-1
 249 500 l 1,9,-1
 189 500 l 1,10,-1
 189 65 l 1,11,-1
 249 65 l 1,8,-1
EndSplineSet
EndChar

StartChar: E
Encoding: 69 69 40
Width: 439
GlyphClass: 2
Flags: W
LayerCount: 2
Fore
SplineSet
377 0 m 1,0,-1
 62 0 l 1,1,-1
 62 565 l 1,2,-1
 377 565 l 1,3,-1
 377 501 l 1,4,-1
 189 501 l 1,5,-1
 189 316 l 1,6,-1
 314 316 l 1,7,-1
 314 250 l 1,8,-1
 189 250 l 1,9,-1
 189 65 l 1,10,-1
 377 65 l 1,11,-1
 377 0 l 1,0,-1
EndSplineSet
EndChar

StartChar: F
Encoding: 70 70 41
Width: 439
GlyphClass: 2
Flags: W
LayerCount: 2
Fore
SplineSet
377 501 m 1,0,-1
 190 501 l 1,1,-1
 190 316 l 1,2,-1
 314 316 l 1,3,-1
 314 250 l 1,4,-1
 190 250 l 1,5,-1
 190 0 l 1,6,-1
 62 0 l 1,7,-1
 62 565 l 1,8,-1
 377 565 l 1,9,-1
 377 501 l 1,0,-1
EndSplineSet
EndChar

StartChar: G
Encoding: 71 71 42
Width: 439
GlyphClass: 2
Flags: W
LayerCount: 2
Fore
SplineSet
377 63 m 1,0,-1
 315 63 l 1,1,-1
 315 0 l 1,2,-1
 124 0 l 1,3,-1
 124 62 l 1,4,-1
 62 62 l 1,5,-1
 62 502 l 1,6,-1
 124 502 l 1,7,-1
 124 565 l 1,8,-1
 315 565 l 1,9,-1
 315 503 l 1,10,-1
 377 503 l 1,11,-1
 377 438 l 1,12,-1
 249 438 l 1,13,-1
 249 501 l 1,14,-1
 189 501 l 1,15,-1
 189 64 l 1,16,-1
 249 64 l 1,17,-1
 249 252 l 1,18,-1
 377 252 l 1,19,-1
 377 63 l 1,0,-1
EndSplineSet
EndChar

StartChar: H
Encoding: 72 72 43
Width: 439
GlyphClass: 2
Flags: W
LayerCount: 2
Fore
SplineSet
377 0 m 1,0,-1
 249 0 l 1,1,-1
 249 250 l 1,2,-1
 189 250 l 1,3,-1
 189 0 l 1,4,-1
 62 0 l 1,5,-1
 62 565 l 1,6,-1
 189 565 l 1,7,-1
 189 315 l 1,8,-1
 249 315 l 1,9,-1
 249 565 l 1,10,-1
 377 565 l 1,11,-1
 377 0 l 1,0,-1
EndSplineSet
EndChar

StartChar: I
Encoding: 73 73 44
Width: 439
GlyphClass: 2
Flags: W
LayerCount: 2
Fore
SplineSet
377 0 m 1,0,-1
 125 0 l 1,1,-1
 125 65 l 1,2,-1
 187 65 l 1,3,-1
 187 500 l 1,4,-1
 125 500 l 1,5,-1
 125 565 l 1,6,-1
 377 565 l 1,7,-1
 377 500 l 1,8,-1
 315 500 l 1,9,-1
 315 65 l 1,10,-1
 377 65 l 1,11,-1
 377 0 l 1,0,-1
EndSplineSet
EndChar

StartChar: J
Encoding: 74 74 45
Width: 439
GlyphClass: 2
Flags: W
LayerCount: 2
Fore
SplineSet
377 62 m 1,0,-1
 315 62 l 1,1,-1
 315 0 l 1,2,-1
 125 0 l 1,3,-1
 125 62 l 1,4,-1
 62 62 l 1,5,-1
 62 189 l 1,6,-1
 189 189 l 1,7,-1
 189 64 l 1,8,-1
 250 64 l 1,9,-1
 250 565 l 1,10,-1
 377 565 l 1,11,-1
 377 62 l 1,0,-1
EndSplineSet
EndChar

StartChar: K
Encoding: 75 75 46
Width: 439
GlyphClass: 2
Flags: W
LayerCount: 2
Fore
SplineSet
377 376 m 1,0,-1
 315 376 l 1,1,-1
 315 313 l 1,2,-1
 251 313 l 1,3,-1
 251 253 l 1,4,-1
 315 253 l 1,5,-1
 315 190 l 1,6,-1
 377 190 l 1,7,-1
 377 0 l 1,8,-1
 250 0 l 1,9,-1
 250 188 l 1,10,-1
 189 188 l 1,11,-1
 189 0 l 1,12,-1
 62 0 l 1,13,-1
 62 565 l 1,14,-1
 189 565 l 1,15,-1
 189 378 l 1,16,-1
 250 378 l 1,17,-1
 250 565 l 1,18,-1
 377 565 l 1,19,-1
 377 376 l 1,0,-1
EndSplineSet
EndChar

StartChar: L
Encoding: 76 76 47
Width: 439
GlyphClass: 2
Flags: W
LayerCount: 2
Fore
SplineSet
377 0 m 1,0,-1
 62 0 l 1,1,-1
 62 565 l 1,2,-1
 189 565 l 1,3,-1
 189 65 l 1,4,-1
 377 65 l 1,5,-1
 377 0 l 1,0,-1
EndSplineSet
EndChar

StartChar: M
Encoding: 77 77 48
Width: 439
GlyphClass: 2
Flags: W
LayerCount: 2
Fore
SplineSet
439 0 m 1,0,-1
 312 0 l 1,1,-1
 312 250 l 1,2,-1
 251 250 l 1,3,-1
 251 125 l 1,4,-1
 187 125 l 1,5,-1
 187 250 l 1,6,-1
 127 250 l 1,7,-1
 127 0 l 1,8,-1
 -1 0 l 1,9,-1
 -1 565 l 1,10,-1
 127 565 l 1,11,-1
 127 440 l 1,12,-1
 189 440 l 1,13,-1
 189 315 l 1,14,-1
 250 315 l 1,15,-1
 250 440 l 1,16,-1
 312 440 l 1,17,-1
 312 565 l 1,18,-1
 439 565 l 1,19,-1
 439 0 l 1,0,-1
EndSplineSet
EndChar

StartChar: N
Encoding: 78 78 49
Width: 439
GlyphClass: 2
Flags: W
LayerCount: 2
Fore
SplineSet
439 0 m 1,0,-1
 312 0 l 1,1,-1
 312 187 l 1,2,-1
 250 187 l 1,3,-1
 250 250 l 1,4,-1
 189 250 l 1,5,-1
 189 0 l 1,6,-1
 62 0 l 1,7,-1
 62 565 l 1,8,-1
 189 565 l 1,9,-1
 189 441 l 1,10,-1
 251 441 l 1,11,-1
 251 315 l 1,12,-1
 312 315 l 1,13,-1
 312 565 l 1,14,-1
 439 565 l 1,15,-1
 439 0 l 1,0,-1
EndSplineSet
EndChar

StartChar: O
Encoding: 79 79 50
Width: 439
GlyphClass: 2
Flags: W
LayerCount: 2
Fore
SplineSet
377 62 m 1,0,-1
 315 62 l 1,1,-1
 315 0 l 1,2,-1
 124 0 l 1,3,-1
 124 62 l 1,4,-1
 62 62 l 1,5,-1
 62 503 l 1,6,-1
 124 503 l 1,7,-1
 124 565 l 1,8,-1
 315 565 l 1,9,-1
 315 503 l 1,10,-1
 377 503 l 1,11,-1
 377 62 l 1,0,-1
249 65 m 1,12,-1
 249 500 l 1,13,-1
 189 500 l 1,14,-1
 189 65 l 1,15,-1
 249 65 l 1,12,-1
EndSplineSet
EndChar

StartChar: P
Encoding: 80 80 51
Width: 439
GlyphClass: 2
Flags: W
LayerCount: 2
Fore
SplineSet
377 313 m 1,0,-1
 315 313 l 1,1,-1
 315 250 l 1,2,-1
 190 250 l 1,3,-1
 190 0 l 1,4,-1
 62 0 l 1,5,-1
 62 565 l 1,6,-1
 315 565 l 1,7,-1
 315 504 l 1,8,-1
 377 504 l 1,9,-1
 377 313 l 1,0,-1
249 315 m 1,10,-1
 249 500 l 1,11,-1
 189 500 l 1,12,-1
 189 315 l 1,13,-1
 249 315 l 1,10,-1
EndSplineSet
EndChar

StartChar: Q
Encoding: 81 81 52
Width: 439
GlyphClass: 2
Flags: W
LayerCount: 2
Fore
SplineSet
377 62 m 1,0,-1
 314 62 l 1,1,-1
 314 -61 l 1,2,-1
 377 -61 l 1,3,-1
 377 -125 l 1,4,-1
 250 -125 l 1,5,-1
 250 -63 l 1,6,-1
 187 -63 l 1,7,-1
 187 -1 l 1,8,-1
 124 -1 l 1,9,-1
 124 62 l 1,10,-1
 62 62 l 1,11,-1
 62 503 l 1,12,-1
 124 503 l 1,13,-1
 124 565 l 1,14,-1
 314 565 l 1,15,-1
 314 503 l 1,16,-1
 377 503 l 1,17,-1
 377 62 l 1,0,-1
249 65 m 1,18,-1
 249 500 l 1,19,-1
 189 500 l 1,20,-1
 189 65 l 1,21,-1
 249 65 l 1,18,-1
EndSplineSet
EndChar

StartChar: R
Encoding: 82 82 53
Width: 439
GlyphClass: 2
Flags: W
LayerCount: 2
Fore
SplineSet
377 313 m 1,0,-1
 314 313 l 1,1,-1
 314 253 l 1,2,-1
 377 253 l 1,3,-1
 377 0 l 1,4,-1
 250 0 l 1,5,-1
 250 250 l 1,6,-1
 190 250 l 1,7,-1
 190 0 l 1,8,-1
 62 0 l 1,9,-1
 62 565 l 1,10,-1
 314 565 l 1,11,-1
 314 504 l 1,12,-1
 377 504 l 1,13,-1
 377 313 l 1,0,-1
249 315 m 1,14,-1
 249 500 l 1,15,-1
 189 500 l 1,16,-1
 189 315 l 1,17,-1
 249 315 l 1,14,-1
EndSplineSet
EndChar

StartChar: S
Encoding: 83 83 54
Width: 439
GlyphClass: 2
Flags: W
LayerCount: 2
Fore
SplineSet
377 62 m 1,0,-1
 314 62 l 1,1,-1
 314 0 l 1,2,-1
 124 0 l 1,3,-1
 124 62 l 1,4,-1
 62 62 l 1,5,-1
 62 189 l 1,6,-1
 126 189 l 1,7,-1
 126 128 l 1,8,-1
 189 128 l 1,9,-1
 189 64 l 1,10,-1
 250 64 l 1,11,-1
 250 187 l 1,12,-1
 187 187 l 1,13,-1
 187 250 l 1,14,-1
 124 249 l 1,15,-1
 124 313 l 1,16,-1
 62 313 l 1,17,-1
 62 502 l 1,18,-1
 124 502 l 1,19,-1
 124 565 l 1,20,-1
 314 565 l 1,21,-1
 314 503 l 1,22,-1
 377 503 l 1,23,-1
 377 376 l 1,24,-1
 313 376 l 1,25,-1
 313 437 l 1,26,-1
 250 437 l 1,27,-1
 250 501 l 1,28,-1
 189 501 l 1,29,-1
 189 378 l 1,30,-1
 251 378 l 1,31,-1
 251 315 l 1,32,-1
 314 315 l 1,33,-1
 314 253 l 1,34,-1
 377 253 l 1,35,-1
 377 62 l 1,0,-1
EndSplineSet
EndChar

StartChar: T
Encoding: 84 84 55
Width: 439
GlyphClass: 2
Flags: W
LayerCount: 2
Fore
SplineSet
439 500 m 1,0,-1
 315 500 l 1,1,-1
 315 0 l 1,2,-1
 187 0 l 1,3,-1
 187 500 l 1,4,-1
 62 500 l 1,5,-1
 62 565 l 1,6,-1
 439 565 l 1,7,-1
 439 500 l 1,0,-1
EndSplineSet
EndChar

StartChar: U
Encoding: 85 85 56
Width: 439
GlyphClass: 2
Flags: W
LayerCount: 2
Fore
SplineSet
377 63 m 1,0,-1
 315 63 l 1,1,-1
 315 0 l 1,2,-1
 125 0 l 1,3,-1
 125 63 l 1,4,-1
 62 62 l 1,5,-1
 62 565 l 1,6,-1
 189 565 l 1,7,-1
 189 64 l 1,8,-1
 249 64 l 1,9,-1
 249 565 l 1,10,-1
 377 565 l 1,11,-1
 377 63 l 1,0,-1
EndSplineSet
EndChar

StartChar: V
Encoding: 86 86 57
Width: 439
GlyphClass: 2
Flags: W
LayerCount: 2
Fore
SplineSet
377 125 m 1,0,-1
 315 125 l 1,1,-1
 315 62 l 1,2,-1
 251 62 l 1,3,-1
 251 0 l 1,4,-1
 187 0 l 1,5,-1
 187 62 l 1,6,-1
 125 62 l 1,7,-1
 125 125 l 1,8,-1
 62 124 l 1,9,-1
 62 565 l 1,10,-1
 189 565 l 1,11,-1
 189 127 l 1,12,-1
 250 127 l 1,13,-1
 250 565 l 1,14,-1
 377 565 l 1,15,-1
 377 125 l 1,0,-1
EndSplineSet
EndChar

StartChar: W
Encoding: 87 87 58
Width: 439
GlyphClass: 2
Flags: W
LayerCount: 2
Fore
SplineSet
439 188 m 1,0,-1
 378 188 l 1,1,-1
 378 0 l 1,2,-1
 250 0 l 1,3,-1
 250 188 l 1,4,-1
 189 188 l 1,5,-1
 189 0 l 1,6,-1
 62 0 l 1,7,-1
 62 187 l 1,8,-1
 -1 187 l 1,9,-1
 -1 565 l 1,10,-1
 126 565 l 1,11,-1
 126 189 l 1,12,-1
 187 189 l 1,13,-1
 187 440 l 1,14,-1
 251 440 l 1,15,-1
 251 189 l 1,16,-1
 311 189 l 1,17,-1
 311 565 l 1,18,-1
 439 565 l 1,19,-1
 439 188 l 1,0,-1
EndSplineSet
EndChar

StartChar: X
Encoding: 88 88 59
Width: 439
GlyphClass: 2
Flags: W
LayerCount: 2
Fore
SplineSet
377 376 m 1,0,-1
 315 376 l 1,1,-1
 315 313 l 1,2,-1
 251 313 l 1,3,-1
 251 253 l 1,4,-1
 315 253 l 1,5,-1
 315 190 l 1,6,-1
 377 190 l 1,7,-1
 377 0 l 1,8,-1
 250 0 l 1,9,-1
 250 188 l 1,10,-1
 189 188 l 1,11,-1
 189 0 l 1,12,-1
 62 0 l 1,13,-1
 62 189 l 1,14,-1
 124 189 l 1,15,-1
 124 253 l 1,16,-1
 187 253 l 1,17,-1
 187 313 l 1,18,-1
 124 313 l 1,19,-1
 124 376 l 1,20,-1
 62 375 l 1,21,-1
 62 565 l 1,22,-1
 189 565 l 1,23,-1
 189 377 l 1,24,-1
 250 377 l 1,25,-1
 250 565 l 1,26,-1
 377 565 l 1,27,-1
 377 376 l 1,0,-1
EndSplineSet
EndChar

StartChar: Y
Encoding: 89 89 60
Width: 439
GlyphClass: 2
Flags: W
LayerCount: 2
Fore
SplineSet
439 313 m 1,0,-1
 378 313 l 1,1,-1
 378 250 l 1,2,-1
 314 250 l 1,3,-1
 314 0 l 1,4,-1
 187 0 l 1,5,-1
 187 250 l 1,6,-1
 125 250 l 1,7,-1
 125 313 l 1,8,-1
 62 312 l 1,9,-1
 62 565 l 1,10,-1
 189 565 l 1,11,-1
 189 315 l 1,12,-1
 313 315 l 1,13,-1
 313 565 l 1,14,-1
 439 565 l 1,15,-1
 439 313 l 1,0,-1
EndSplineSet
EndChar

StartChar: Z
Encoding: 90 90 61
Width: 439
GlyphClass: 2
Flags: W
LayerCount: 2
Fore
SplineSet
377 438 m 1,0,-1
 315 438 l 1,1,-1
 315 313 l 1,2,-1
 252 313 l 1,3,-1
 252 188 l 1,4,-1
 189 188 l 1,5,-1
 189 65 l 1,6,-1
 377 65 l 1,7,-1
 377 0 l 1,8,-1
 62 0 l 1,9,-1
 62 189 l 1,10,-1
 124 189 l 1,11,-1
 124 315 l 1,12,-1
 187 315 l 1,13,-1
 187 440 l 1,14,-1
 250 440 l 1,15,-1
 250 500 l 1,16,-1
 62 500 l 1,17,-1
 62 565 l 1,18,-1
 377 565 l 1,19,-1
 377 438 l 1,0,-1
EndSplineSet
EndChar

StartChar: bracketleft
Encoding: 91 91 62
Width: 439
GlyphClass: 2
Flags: W
LayerCount: 2
Fore
SplineSet
377 -125 m 1,0,-1
 125 -125 l 1,1,-1
 125 565 l 1,2,-1
 377 565 l 1,3,-1
 377 501 l 1,4,-1
 252 501 l 1,5,-1
 252 -60 l 1,6,-1
 377 -60 l 1,7,-1
 377 -125 l 1,0,-1
EndSplineSet
EndChar

StartChar: backslash
Encoding: 92 92 63
Width: 439
GlyphClass: 2
Flags: W
LayerCount: 2
Fore
SplineSet
379 0 m 1,0,-1
 250 0 l 1,1,-1
 250 63 l 1,2,-1
 187 62 l 1,3,-1
 187 187 l 1,4,-1
 125 187 l 1,5,-1
 125 313 l 1,6,-1
 62 313 l 1,7,-1
 62 438 l 1,8,-1
 -1 438 l 1,9,-1
 -1 565 l 1,10,-1
 126 565 l 1,11,-1
 126 440 l 1,12,-1
 189 440 l 1,13,-1
 189 315 l 1,14,-1
 251 315 l 1,15,-1
 251 190 l 1,16,-1
 314 190 l 1,17,-1
 314 65 l 1,18,-1
 379 65 l 1,19,-1
 379 0 l 1,0,-1
EndSplineSet
EndChar

StartChar: bracketright
Encoding: 93 93 64
Width: 439
GlyphClass: 2
Flags: W
LayerCount: 2
Fore
SplineSet
314 -125 m 1,0,-1
 62 -125 l 1,1,-1
 62 -61 l 1,2,-1
 187 -61 l 1,3,-1
 187 500 l 1,4,-1
 62 500 l 1,5,-1
 62 565 l 1,6,-1
 314 565 l 1,7,-1
 314 -125 l 1,0,-1
EndSplineSet
EndChar

StartChar: asciicircum
Encoding: 94 94 65
Width: 439
GlyphClass: 2
Flags: W
LayerCount: 2
Fore
SplineSet
377 376 m 1,0,-1
 250 376 l 1,1,-1
 250 438 l 1,2,-1
 189 438 l 1,3,-1
 189 376 l 1,4,-1
 62 376 l 1,5,-1
 62 440 l 1,6,-1
 124 440 l 1,7,-1
 124 503 l 1,8,-1
 188 503 l 1,9,-1
 188 565 l 1,10,-1
 251 565 l 1,11,-1
 251 503 l 1,12,-1
 314 503 l 1,13,-1
 314 440 l 1,14,-1
 377 440 l 1,15,-1
 377 376 l 1,0,-1
EndSplineSet
EndChar

StartChar: underscore
Encoding: 95 95 66
Width: 439
GlyphClass: 2
Flags: W
LayerCount: 2
Fore
SplineSet
439 -125 m 1,0,-1
 -1 -125 l 1,1,-1
 -1 -61 l 1,2,-1
 439 -61 l 1,3,-1
 439 -125 l 1,0,-1
EndSplineSet
EndChar

StartChar: grave
Encoding: 96 96 67
Width: 439
GlyphClass: 2
Flags: W
LayerCount: 2
Fore
SplineSet
314 376 m 1,0,-1
 187 376 l 1,1,-1
 187 438 l 1,2,-1
 125 437 l 1,3,-1
 125 565 l 1,4,-1
 251 565 l 1,5,-1
 251 440 l 1,6,-1
 314 440 l 1,7,-1
 314 376 l 1,0,-1
EndSplineSet
EndChar

StartChar: a
Encoding: 97 97 68
Width: 439
GlyphClass: 2
Flags: W
LayerCount: 2
Fore
SplineSet
377 0 m 1,0,-1
 124 0 l 1,1,-1
 124 62 l 1,2,-1
 62 62 l 1,3,-1
 62 189 l 1,4,-1
 124 189 l 1,5,-1
 124 252 l 1,6,-1
 249 252 l 1,7,-1
 249 313 l 1,8,-1
 124 312 l 1,9,-1
 124 377 l 1,10,-1
 314 377 l 1,11,-1
 314 315 l 1,12,-1
 377 315 l 1,13,-1
 377 0 l 1,0,-1
249 65 m 1,14,-1
 249 187 l 1,15,-1
 189 187 l 1,16,-1
 189 65 l 1,17,-1
 249 65 l 1,14,-1
EndSplineSet
EndChar

StartChar: b
Encoding: 98 98 69
Width: 439
GlyphClass: 2
Flags: W
LayerCount: 2
Fore
SplineSet
377 63 m 1,0,-1
 315 63 l 1,1,-1
 315 0 l 1,2,-1
 62 0 l 1,3,-1
 62 565 l 1,4,-1
 189 565 l 1,5,-1
 189 378 l 1,6,-1
 315 378 l 1,7,-1
 315 316 l 1,8,-1
 377 316 l 1,9,-1
 377 63 l 1,0,-1
249 65 m 1,10,-1
 249 312 l 1,11,-1
 189 312 l 1,12,-1
 189 65 l 1,13,-1
 249 65 l 1,10,-1
EndSplineSet
EndChar

StartChar: c
Encoding: 99 99 70
Width: 439
GlyphClass: 2
Flags: W
LayerCount: 2
Fore
SplineSet
377 63 m 1,0,-1
 315 63 l 1,1,-1
 315 0 l 1,2,-1
 124 0 l 1,3,-1
 124 62 l 1,4,-1
 62 62 l 1,5,-1
 62 315 l 1,6,-1
 124 315 l 1,7,-1
 124 377 l 1,8,-1
 315 377 l 1,9,-1
 315 315 l 1,10,-1
 377 315 l 1,11,-1
 377 250 l 1,12,-1
 249 250 l 1,13,-1
 249 313 l 1,14,-1
 189 313 l 1,15,-1
 189 64 l 1,16,-1
 249 64 l 1,17,-1
 249 127 l 1,18,-1
 377 127 l 1,19,-1
 377 63 l 1,0,-1
EndSplineSet
EndChar

StartChar: d
Encoding: 100 100 71
Width: 439
GlyphClass: 2
Flags: W
LayerCount: 2
Fore
SplineSet
377 0 m 1,0,-1
 124 0 l 1,1,-1
 124 62 l 1,2,-1
 62 62 l 1,3,-1
 62 315 l 1,4,-1
 124 315 l 1,5,-1
 124 377 l 1,6,-1
 250 377 l 1,7,-1
 250 565 l 1,8,-1
 377 565 l 1,9,-1
 377 0 l 1,0,-1
249 65 m 1,10,-1
 249 312 l 1,11,-1
 189 312 l 1,12,-1
 189 65 l 1,13,-1
 249 65 l 1,10,-1
EndSplineSet
EndChar

StartChar: e
Encoding: 101 101 72
Width: 439
GlyphClass: 2
Flags: W
LayerCount: 2
Fore
SplineSet
377 188 m 1,0,-1
 189 188 l 1,1,-1
 189 64 l 1,2,-1
 313 64 l 1,3,-1
 313 127 l 1,4,-1
 377 127 l 1,5,-1
 377 63 l 1,6,-1
 314 63 l 1,7,-1
 314 0 l 1,8,-1
 124 0 l 1,9,-1
 124 62 l 1,10,-1
 62 62 l 1,11,-1
 62 315 l 1,12,-1
 124 315 l 1,13,-1
 124 377 l 1,14,-1
 314 377 l 1,15,-1
 314 315 l 1,16,-1
 377 315 l 1,17,-1
 377 188 l 1,0,-1
249 253 m 1,18,-1
 249 312 l 1,19,-1
 189 312 l 1,20,-1
 189 253 l 1,21,-1
 249 253 l 1,18,-1
EndSplineSet
EndChar

StartChar: f
Encoding: 102 102 73
Width: 439
GlyphClass: 2
Flags: W
LayerCount: 2
Fore
SplineSet
377 313 m 1,0,-1
 252 313 l 1,1,-1
 252 0 l 1,2,-1
 124 0 l 1,3,-1
 124 313 l 1,4,-1
 62 313 l 1,5,-1
 62 378 l 1,6,-1
 124 378 l 1,7,-1
 124 502 l 1,8,-1
 187 502 l 1,9,-1
 187 565 l 1,10,-1
 377 565 l 1,11,-1
 377 501 l 1,12,-1
 252 501 l 1,13,-1
 252 378 l 1,14,-1
 377 378 l 1,15,-1
 377 313 l 1,0,-1
EndSplineSet
EndChar

StartChar: g
Encoding: 103 103 74
Width: 439
GlyphClass: 2
Flags: W
LayerCount: 2
Fore
SplineSet
377 -63 m 1,0,-1
 315 -63 l 1,1,-1
 315 -125 l 1,2,-1
 124 -125 l 1,3,-1
 124 -61 l 1,4,-1
 249 -61 l 1,5,-1
 249 -1 l 1,6,-1
 124 -1 l 1,7,-1
 124 62 l 1,8,-1
 62 62 l 1,9,-1
 62 315 l 1,10,-1
 124 315 l 1,11,-1
 124 377 l 1,12,-1
 377 377 l 1,13,-1
 377 -63 l 1,0,-1
249 65 m 1,14,-1
 249 312 l 1,15,-1
 189 312 l 1,16,-1
 189 65 l 1,17,-1
 249 65 l 1,14,-1
EndSplineSet
EndChar

StartChar: h
Encoding: 104 104 75
Width: 439
GlyphClass: 2
Flags: W
LayerCount: 2
Fore
SplineSet
376 0 m 1,0,-1
 251 0 l 1,1,-1
 251 311 l 1,2,-1
 191 311 l 1,3,-1
 191 0 l 1,4,-1
 64 0 l 1,5,-1
 64 563 l 1,6,-1
 191 563 l 1,7,-1
 191 376 l 1,8,-1
 316 376 l 1,9,-1
 316 313 l 1,10,-1
 376 313 l 1,11,-1
 376 0 l 1,0,-1
EndSplineSet
EndChar

StartChar: i
Encoding: 105 105 76
Width: 439
GlyphClass: 2
Flags: W
LayerCount: 2
Fore
SplineSet
314 501 m 1,0,-1
 189 501 l 1,1,-1
 189 565 l 1,2,-1
 314 565 l 1,3,-1
 314 501 l 1,0,-1
374 0 m 1,4,-1
 125 0 l 1,5,-1
 125 65 l 1,6,-1
 187 65 l 1,7,-1
 187 312 l 1,8,-1
 125 312 l 1,9,-1
 125 375 l 1,10,-1
 314 375 l 1,11,-1
 314 65 l 1,12,-1
 374 65 l 1,13,-1
 374 0 l 1,4,-1
EndSplineSet
EndChar

StartChar: j
Encoding: 106 106 77
Width: 439
GlyphClass: 2
Flags: W
LayerCount: 2
Fore
SplineSet
314 501 m 1,0,-1
 187 501 l 1,1,-1
 187 565 l 1,2,-1
 314 565 l 1,3,-1
 314 501 l 1,0,-1
314 -63 m 1,4,-1
 252 -63 l 1,5,-1
 252 -125 l 1,6,-1
 62 -125 l 1,7,-1
 62 -61 l 1,8,-1
 187 -61 l 1,9,-1
 187 312 l 1,10,-1
 125 312 l 1,11,-1
 125 377 l 1,12,-1
 314 377 l 1,13,-1
 314 -63 l 1,4,-1
EndSplineSet
EndChar

StartChar: k
Encoding: 107 107 78
Width: 439
GlyphClass: 2
Flags: W
LayerCount: 2
Fore
SplineSet
378 313 m 1,0,-1
 315 313 l 1,1,-1
 315 250 l 1,2,-1
 251 250 l 1,3,-1
 251 190 l 1,4,-1
 315 190 l 1,5,-1
 315 127 l 1,6,-1
 378 127 l 1,7,-1
 378 0 l 1,8,-1
 250 0 l 1,9,-1
 250 125 l 1,10,-1
 189 125 l 1,11,-1
 189 0 l 1,12,-1
 64 0 l 1,13,-1
 64 565 l 1,14,-1
 189 565 l 1,15,-1
 189 315 l 1,16,-1
 250 315 l 1,17,-1
 250 377 l 1,18,-1
 378 377 l 1,19,-1
 378 313 l 1,0,-1
EndSplineSet
EndChar

StartChar: l
Encoding: 108 108 79
Width: 439
GlyphClass: 2
Flags: W
LayerCount: 2
Fore
SplineSet
377 0 m 1,0,-1
 125 0 l 1,1,-1
 125 65 l 1,2,-1
 187 65 l 1,3,-1
 187 500 l 1,4,-1
 125 500 l 1,5,-1
 125 565 l 1,6,-1
 314 565 l 1,7,-1
 314 65 l 1,8,-1
 377 65 l 1,9,-1
 377 0 l 1,0,-1
EndSplineSet
EndChar

StartChar: m
Encoding: 109 109 80
Width: 439
GlyphClass: 2
Flags: W
LayerCount: 2
Fore
SplineSet
439 0 m 1,0,-1
 313 0 l 1,1,-1
 313 250 l 1,2,-1
 251 250 l 1,3,-1
 251 63 l 1,4,-1
 187 63 l 1,5,-1
 187 250 l 1,6,-1
 127 250 l 1,7,-1
 127 0 l 1,8,-1
 -1 0 l 1,9,-1
 -1 377 l 1,10,-1
 189 377 l 1,11,-1
 189 315 l 1,12,-1
 250 315 l 1,13,-1
 250 377 l 1,14,-1
 377 377 l 1,15,-1
 377 315 l 1,16,-1
 439 315 l 1,17,-1
 439 0 l 1,0,-1
EndSplineSet
EndChar

StartChar: n
Encoding: 110 110 81
Width: 439
GlyphClass: 2
Flags: W
LayerCount: 2
Fore
SplineSet
377 0 m 1,0,-1
 250 0 l 1,1,-1
 250 313 l 1,2,-1
 190 313 l 1,3,-1
 190 0 l 1,4,-1
 62 0 l 1,5,-1
 62 377 l 1,6,-1
 314 377 l 1,7,-1
 314 315 l 1,8,-1
 377 315 l 1,9,-1
 377 0 l 1,0,-1
EndSplineSet
EndChar

StartChar: o
Encoding: 111 111 82
Width: 439
GlyphClass: 2
Flags: W
LayerCount: 2
Fore
SplineSet
377 62 m 1,0,-1
 315 62 l 1,1,-1
 315 0 l 1,2,-1
 124 0 l 1,3,-1
 124 62 l 1,4,-1
 62 62 l 1,5,-1
 62 315 l 1,6,-1
 124 315 l 1,7,-1
 124 377 l 1,8,-1
 315 377 l 1,9,-1
 315 315 l 1,10,-1
 377 315 l 1,11,-1
 377 62 l 1,0,-1
249 65 m 1,12,-1
 249 312 l 1,13,-1
 189 312 l 1,14,-1
 189 65 l 1,15,-1
 249 65 l 1,12,-1
EndSplineSet
EndChar

StartChar: p
Encoding: 112 112 83
Width: 439
GlyphClass: 2
Flags: W
LayerCount: 2
Fore
SplineSet
377 63 m 1,0,-1
 315 63 l 1,1,-1
 315 0 l 1,2,-1
 190 0 l 1,3,-1
 190 -125 l 1,4,-1
 62 -125 l 1,5,-1
 62 377 l 1,6,-1
 315 377 l 1,7,-1
 315 316 l 1,8,-1
 377 316 l 1,9,-1
 377 63 l 1,0,-1
249 65 m 1,10,-1
 249 312 l 1,11,-1
 189 312 l 1,12,-1
 189 65 l 1,13,-1
 249 65 l 1,10,-1
EndSplineSet
EndChar

StartChar: q
Encoding: 113 113 84
Width: 439
GlyphClass: 2
Flags: W
LayerCount: 2
Fore
SplineSet
377 -125 m 1,0,-1
 250 -125 l 1,1,-1
 250 -1 l 1,2,-1
 124 -1 l 1,3,-1
 124 62 l 1,4,-1
 62 62 l 1,5,-1
 62 315 l 1,6,-1
 124 315 l 1,7,-1
 124 377 l 1,8,-1
 377 377 l 1,9,-1
 377 -125 l 1,0,-1
249 65 m 1,10,-1
 249 312 l 1,11,-1
 189 312 l 1,12,-1
 189 65 l 1,13,-1
 249 65 l 1,10,-1
EndSplineSet
EndChar

StartChar: r
Encoding: 114 114 85
Width: 439
GlyphClass: 2
Flags: W
LayerCount: 2
Fore
SplineSet
377 250 m 1,0,-1
 189 250 l 1,1,-1
 189 0 l 1,2,-1
 62 0 l 1,3,-1
 62 377 l 1,4,-1
 189 377 l 1,5,-1
 189 315 l 1,6,-1
 249 315 l 1,7,-1
 249 377 l 1,8,-1
 377 377 l 1,9,-1
 377 250 l 1,0,-1
EndSplineSet
EndChar

StartChar: s
Encoding: 115 115 86
Width: 439
GlyphClass: 2
Flags: W
LayerCount: 2
Fore
SplineSet
377 313 m 1,0,-1
 189 313 l 1,1,-1
 189 253 l 1,2,-1
 315 253 l 1,3,-1
 315 190 l 1,4,-1
 377 190 l 1,5,-1
 377 63 l 1,6,-1
 315 63 l 1,7,-1
 315 0 l 1,8,-1
 62 0 l 1,9,-1
 62 64 l 1,10,-1
 249 64 l 1,11,-1
 249 124 l 1,12,-1
 124 124 l 1,13,-1
 124 187 l 1,14,-1
 62 187 l 1,15,-1
 62 315 l 1,16,-1
 124 315 l 1,17,-1
 124 377 l 1,18,-1
 377 377 l 1,19,-1
 377 313 l 1,0,-1
EndSplineSet
EndChar

StartChar: t
Encoding: 116 116 87
Width: 439
GlyphClass: 2
Flags: W
LayerCount: 2
Fore
SplineSet
377 313 m 1,0,-1
 252 313 l 1,1,-1
 252 65 l 1,2,-1
 377 65 l 1,3,-1
 377 0 l 1,4,-1
 187 0 l 1,5,-1
 187 63 l 1,6,-1
 124 62 l 1,7,-1
 124 313 l 1,8,-1
 62 313 l 1,9,-1
 62 378 l 1,10,-1
 124 378 l 1,11,-1
 124 502 l 1,12,-1
 252 502 l 1,13,-1
 252 378 l 1,14,-1
 377 378 l 1,15,-1
 377 313 l 1,0,-1
EndSplineSet
EndChar

StartChar: u
Encoding: 117 117 88
Width: 439
GlyphClass: 2
Flags: W
LayerCount: 2
Fore
SplineSet
377 0 m 1,0,-1
 125 0 l 1,1,-1
 125 62 l 1,2,-1
 62 62 l 1,3,-1
 62 377 l 1,4,-1
 189 377 l 1,5,-1
 189 64 l 1,6,-1
 249 64 l 1,7,-1
 249 377 l 1,8,-1
 377 377 l 1,9,-1
 377 0 l 1,0,-1
EndSplineSet
EndChar

StartChar: v
Encoding: 118 118 89
Width: 439
GlyphClass: 2
Flags: W
LayerCount: 2
Fore
SplineSet
377 125 m 1,0,-1
 315 125 l 1,1,-1
 315 62 l 1,2,-1
 251 62 l 1,3,-1
 251 0 l 1,4,-1
 187 0 l 1,5,-1
 187 62 l 1,6,-1
 125 62 l 1,7,-1
 125 125 l 1,8,-1
 62 124 l 1,9,-1
 62 377 l 1,10,-1
 189 377 l 1,11,-1
 189 127 l 1,12,-1
 250 127 l 1,13,-1
 250 377 l 1,14,-1
 377 377 l 1,15,-1
 377 125 l 1,0,-1
EndSplineSet
EndChar

StartChar: w
Encoding: 119 119 90
Width: 439
GlyphClass: 2
Flags: W
LayerCount: 2
Fore
SplineSet
439 125 m 1,0,-1
 378 125 l 1,1,-1
 378 0 l 1,2,-1
 250 0 l 1,3,-1
 250 62 l 1,4,-1
 189 62 l 1,5,-1
 189 0 l 1,6,-1
 62 0 l 1,7,-1
 62 125 l 1,8,-1
 -1 125 l 1,9,-1
 -1 377 l 1,10,-1
 126 377 l 1,11,-1
 126 127 l 1,12,-1
 187 127 l 1,13,-1
 187 315 l 1,14,-1
 251 315 l 1,15,-1
 251 127 l 1,16,-1
 311 127 l 1,17,-1
 311 377 l 1,18,-1
 439 377 l 1,19,-1
 439 125 l 1,0,-1
EndSplineSet
EndChar

StartChar: x
Encoding: 120 120 91
Width: 439
GlyphClass: 2
Flags: W
LayerCount: 2
Fore
SplineSet
377 250 m 1,0,-1
 315 250 l 1,1,-1
 315 127 l 1,2,-1
 377 127 l 1,3,-1
 377 0 l 1,4,-1
 249 0 l 1,5,-1
 249 125 l 1,6,-1
 189 125 l 1,7,-1
 189 0 l 1,8,-1
 62 0 l 1,9,-1
 62 127 l 1,10,-1
 124 127 l 1,11,-1
 124 250 l 1,12,-1
 62 250 l 1,13,-1
 62 377 l 1,14,-1
 189 377 l 1,15,-1
 189 252 l 1,16,-1
 249 252 l 1,17,-1
 249 377 l 1,18,-1
 377 377 l 1,19,-1
 377 250 l 1,0,-1
EndSplineSet
EndChar

StartChar: y
Encoding: 121 121 92
Width: 439
GlyphClass: 2
Flags: W
LayerCount: 2
Fore
SplineSet
377 125 m 1,0,-1
 315 125 l 1,1,-1
 315 0 l 1,2,-1
 251 0 l 1,3,-1
 251 -63 l 1,4,-1
 189 -63 l 1,5,-1
 189 -125 l 1,6,-1
 62 -125 l 1,7,-1
 62 -61 l 1,8,-1
 124 -61 l 1,9,-1
 124 2 l 1,10,-1
 187 2 l 1,11,-1
 187 62 l 1,12,-1
 124 62 l 1,13,-1
 124 125 l 1,14,-1
 62 124 l 1,15,-1
 62 377 l 1,16,-1
 189 377 l 1,17,-1
 189 127 l 1,18,-1
 250 127 l 1,19,-1
 250 377 l 1,20,-1
 377 377 l 1,21,-1
 377 125 l 1,0,-1
EndSplineSet
EndChar

StartChar: z
Encoding: 122 122 93
Width: 439
GlyphClass: 2
Flags: W
LayerCount: 2
Fore
SplineSet
377 250 m 1,0,-1
 315 250 l 1,1,-1
 315 188 l 1,2,-1
 252 188 l 1,3,-1
 252 125 l 1,4,-1
 189 125 l 1,5,-1
 189 65 l 1,6,-1
 377 65 l 1,7,-1
 377 0 l 1,8,-1
 62 0 l 1,9,-1
 62 127 l 1,10,-1
 124 127 l 1,11,-1
 124 189 l 1,12,-1
 187 189 l 1,13,-1
 187 252 l 1,14,-1
 250 252 l 1,15,-1
 250 312 l 1,16,-1
 62 312 l 1,17,-1
 62 377 l 1,18,-1
 377 377 l 1,19,-1
 377 250 l 1,0,-1
EndSplineSet
EndChar

StartChar: braceleft
Encoding: 123 123 94
Width: 439
GlyphClass: 2
Flags: W
LayerCount: 2
Fore
SplineSet
377 501 m 1,0,-1
 252 501 l 1,1,-1
 252 313 l 1,2,-1
 189 313 l 1,3,-1
 189 252 l 1,4,-1
 252 253 l 1,5,-1
 252 65 l 1,6,-1
 377 65 l 1,7,-1
 377 0 l 1,8,-1
 187 0 l 1,9,-1
 187 63 l 1,10,-1
 124 62 l 1,11,-1
 124 250 l 1,12,-1
 62 250 l 1,13,-1
 62 315 l 1,14,-1
 124 315 l 1,15,-1
 124 502 l 1,16,-1
 187 502 l 1,17,-1
 187 565 l 1,18,-1
 377 565 l 1,19,-1
 377 501 l 1,0,-1
EndSplineSet
EndChar

StartChar: bar
Encoding: 124 124 95
Width: 439
GlyphClass: 2
Flags: W
LayerCount: 2
Fore
SplineSet
251 250 m 1,0,-1
 125 250 l 1,1,-1
 125 565 l 1,2,-1
 251 565 l 1,3,-1
 251 250 l 1,0,-1
251 -125 m 1,4,-1
 125 -125 l 1,5,-1
 125 189 l 1,6,-1
 251 189 l 1,7,-1
 251 -125 l 1,4,-1
EndSplineSet
EndChar

StartChar: braceright
Encoding: 125 125 96
Width: 439
GlyphClass: 2
Flags: W
LayerCount: 2
Fore
SplineSet
377 250 m 1,0,-1
 315 250 l 1,1,-1
 315 63 l 1,2,-1
 251 63 l 1,3,-1
 251 0 l 1,4,-1
 62 0 l 1,5,-1
 62 64 l 1,6,-1
 187 64 l 1,7,-1
 187 252 l 1,8,-1
 250 252 l 1,9,-1
 250 313 l 1,10,-1
 187 312 l 1,11,-1
 187 501 l 1,12,-1
 62 500 l 1,13,-1
 62 565 l 1,14,-1
 251 565 l 1,15,-1
 251 502 l 1,16,-1
 315 504 l 1,17,-1
 315 315 l 1,18,-1
 377 315 l 1,19,-1
 377 250 l 1,0,-1
EndSplineSet
EndChar

StartChar: asciitilde
Encoding: 126 126 97
Width: 439
GlyphClass: 2
Flags: W
LayerCount: 2
Fore
SplineSet
377 438 m 1,0,-1
 314 438 l 1,1,-1
 314 376 l 1,2,-1
 187 376 l 1,3,-1
 187 438 l 1,4,-1
 126 438 l 1,5,-1
 126 376 l 1,6,-1
 62 376 l 1,7,-1
 62 503 l 1,8,-1
 125 503 l 1,9,-1
 125 565 l 1,10,-1
 251 565 l 1,11,-1
 251 503 l 1,12,-1
 313 503 l 1,13,-1
 313 565 l 1,14,-1
 377 565 l 1,15,-1
 377 438 l 1,0,-1
EndSplineSet
EndChar

StartChar: endash
Encoding: 8211 8211 98
Width: 439
GlyphClass: 2
Flags: W
LayerCount: 2
Fore
SplineSet
377 188 m 1,0,-1
 62 188 l 1,1,-1
 62 252 l 1,2,-1
 377 252 l 1,3,-1
 377 188 l 1,0,-1
EndSplineSet
EndChar

StartChar: emdash
Encoding: 8212 8212 99
Width: 439
GlyphClass: 2
Flags: W
LayerCount: 2
Fore
SplineSet
377 188 m 1,0,-1
 62 188 l 1,1,-1
 62 252 l 1,2,-1
 377 252 l 1,3,-1
 377 188 l 1,0,-1
EndSplineSet
EndChar

StartChar: quoteleft
Encoding: 8216 8216 100
Width: 439
GlyphClass: 2
Flags: W
LayerCount: 2
Fore
SplineSet
307 500 m 1,0,-1
 245 500 l 1,1,-1
 245 375 l 1,2,-1
 118 375 l 1,3,-1
 118 502 l 1,4,-1
 180 502 l 1,5,-1
 180 564 l 1,6,-1
 307 564 l 1,7,-1
 307 500 l 1,0,-1
EndSplineSet
EndChar

StartChar: quoteright
Encoding: 8217 8217 101
Width: 439
GlyphClass: 2
Flags: W
LayerCount: 2
Fore
SplineSet
314 438 m 1,0,-1
 252 438 l 1,1,-1
 252 376 l 1,2,-1
 125 376 l 1,3,-1
 125 440 l 1,4,-1
 187 440 l 1,5,-1
 187 565 l 1,6,-1
 314 565 l 1,7,-1
 314 438 l 1,0,-1
EndSplineSet
EndChar

StartChar: quotedblleft
Encoding: 8220 8220 102
Width: 439
GlyphClass: 2
Flags: W
LayerCount: 2
Fore
SplineSet
377 376 m 1,0,-1
 250 376 l 1,1,-1
 250 565 l 1,2,-1
 377 565 l 1,3,-1
 377 376 l 1,0,-1
189 376 m 1,4,-1
 62 376 l 1,5,-1
 62 565 l 1,6,-1
 189 565 l 1,7,-1
 189 376 l 1,4,-1
EndSplineSet
EndChar

StartChar: quotedblright
Encoding: 8221 8221 103
Width: 439
GlyphClass: 2
Flags: W
LayerCount: 2
Fore
SplineSet
377 376 m 1,0,-1
 250 376 l 1,1,-1
 250 565 l 1,2,-1
 377 565 l 1,3,-1
 377 376 l 1,0,-1
189 376 m 1,4,-1
 62 376 l 1,5,-1
 62 565 l 1,6,-1
 189 565 l 1,7,-1
 189 376 l 1,4,-1
EndSplineSet
EndChar

StartChar: ellipsis
Encoding: 8230 8230 104
Width: 1121
GlyphClass: 2
Flags: W
LayerCount: 2
Fore
SplineSet
974 0 m 1,0,-1
 785 0 l 1,1,-1
 785 127 l 1,2,-1
 974 127 l 1,3,-1
 974 0 l 1,0,-1
644 0 m 1,4,-1
 455 0 l 1,5,-1
 455 127 l 1,6,-1
 644 127 l 1,7,-1
 644 0 l 1,4,-1
314 0 m 1,8,-1
 125 0 l 1,9,-1
 125 127 l 1,10,-1
 314 127 l 1,11,-1
 314 0 l 1,8,-1
EndSplineSet
EndChar
